<?xml version="1.0" encoding="UTF-8"?>
<svg id="Layer_3" data-name="Layer 3" xmlns="http://www.w3.org/2000/svg" viewBox="0 0 691.86 292.38">
  <defs>
    <style>
      .cls-1, .cls-2 {
        fill: #231f20;
        stroke-width: 0px;
      }

      .cls-2 {
        fill-rule: evenodd;
      }
    </style>
  </defs>
  <g>
    <path class="cls-1" d="m124.12,132.99l-79.82.29v-18.12h85.35v-8.49H63.85c-6.55,0-12.19-2.1-16.93-6.29-4.74-4.2-7.1-9.47-7.1-15.83s2.73-11.76,8.2-16.02c5.15-4.01,11.22-6.01,18.22-6.01l76.86-.48v17.83l-84.02.1v8.58h64.85c6.42,0,12.02,2.19,16.79,6.58,4.77,4.39,7.15,9.73,7.15,16.02s-2.35,11.35-7.06,15.54c-4.7,4.2-10.27,6.29-16.69,6.29Z"/>
    <path class="cls-1" d="m150.63,133.57V61.95h19.74v71.62h-19.74Z"/>
    <path class="cls-1" d="m274.51,83.69c0,3.18-.67,6.36-2,9.54-.45,1.02-1.11,2.29-2,3.81,1.27,1.78,2.19,3.21,2.77,4.29,1.84,3.37,2.77,6.23,2.77,8.58,0,6.68-2.37,12.19-7.1,16.55-4.74,4.36-10.29,6.53-16.64,6.53h-78.2V61.95h75.05c6.49,0,11.38.83,14.69,2.48,4.39,2.16,7.57,6.29,9.54,12.4.38,1.02.67,2.18.86,3.48.19,1.3.29,2.43.29,3.39Zm-81.73-3.72v8.01h62.94v-8.01h-62.94Zm.29,26.42v8.2h63.42v-8.2h-63.42Z"/>
    <path class="cls-1" d="m373.98,71.01c1.78,2.16,3.07,4.31,3.86,6.44.79,2.13,1.19,4.59,1.19,7.39v26.32c0,3.05-.52,5.72-1.57,8.01-1.05,2.29-2.73,4.61-5.05,6.96-2.32,2.35-4.67,4.04-7.06,5.05-2.38,1.02-5.29,1.53-8.73,1.53h-54.26c-3.75,0-6.9-.56-9.44-1.67-2.54-1.11-5.02-3.04-7.44-5.77-2.04-2.29-3.47-4.59-4.29-6.91-.83-2.32-1.24-5.07-1.24-8.25v-26.89c0-3.11.7-5.91,2.1-8.39,1.21-2.16,3.1-4.37,5.67-6.63,2.57-2.26,5.18-3.81,7.82-4.67,2.64-.86,5.77-1.29,9.39-1.29h51.97c3.62,0,6.8.71,9.54,2.15,2.73,1.43,5.25,3.64,7.53,6.63Zm-75.82,43.87h62.37v-34.24h-62.37v34.24Z"/>
  </g>
  <g>
    <path class="cls-1" d="m34.8,166.74c3.58-7.01,6.85-12.03,9.81-15.06,4.2-4.28,9.23-6.42,15.06-6.42,5.53,0,10.39,2.3,14.6,6.89,2.64,2.96,5.84,8.02,9.57,15.18l33.52,65.28-23.82-.35-12.96-22.77h-42.74l-11.91,22.77-24.64.35,33.51-65.86Zm24.52,1.98l-10.28,18.45h20.44l-10.16-18.45Z"/>
    <path class="cls-1" d="m222.94,166.74c3.58-7.01,6.85-12.03,9.81-15.06,4.2-4.28,9.22-6.42,15.06-6.42,5.53,0,10.39,2.3,14.6,6.89,2.65,2.96,5.84,8.02,9.58,15.18l33.51,65.28-23.82-.35-12.96-22.77h-42.74l-11.91,22.77-24.64.35,33.51-65.86Zm24.52,1.98l-10.28,18.45h20.44l-10.16-18.45Z"/>
    <path class="cls-1" d="m330.83,143.5c3.11,0,6.19.74,9.23,2.22,3.04,1.48,5.95,3.58,8.76,6.31l58.74,58.39v-64.81h21.95v63.53c0,5.14-.9,9.48-2.69,13.02-1.79,3.54-4.75,6.48-8.87,8.82-1.48.78-3.12,1.4-4.9,1.87-1.79.47-3.47.7-5.02.7-3.27,0-6.4-.72-9.4-2.16-3-1.44-5.94-3.56-8.82-6.36l-58.74-57.92v65.51l-21.84-.35v-67.85c0-4.36,1.09-8.1,3.27-11.21,2.18-3.11,5.37-5.64,9.58-7.59,2.96-1.4,5.88-2.1,8.76-2.1Z"/>
    <path class="cls-1" d="m561.8,167.09h-100.31v43.44h100.31v21.72h-94.35c-4.52,0-8.31-.58-11.38-1.75-3.08-1.17-6.09-3.31-9.05-6.42-2.57-2.65-4.53-5.35-5.9-8.12-1.36-2.76-2.04-5.86-2.04-9.28v-29.31c0-5.92.72-10.94,2.16-15.06,1.44-4.13,4.11-7.78,8-10.98,3.19-2.65,6.38-4.3,9.58-4.96,3.19-.66,7.51-.99,12.96-.99h90.03v21.72Z"/>
    <path class="cls-1" d="m691.86,167.33h-99.02v10.16h99.02v22.54l-98.44.23v9.22h98.44v23.12h-90.62c-5.14,0-9.48-.76-13.02-2.28-3.54-1.52-6.95-4.15-10.22-7.88-2.49-3.04-4.3-5.88-5.43-8.53-1.13-2.65-1.69-5.76-1.69-9.34v-31.65c0-4.36.68-8.13,2.04-11.33,1.36-3.19,3.6-6.25,6.71-9.17,3.11-2.92,6.31-4.88,9.58-5.9,3.27-1.01,7.36-1.52,12.26-1.52h90.38v22.3Z"/>
    <path class="cls-1" d="m188.35,145.25h24.76l-36.78,70.42c-2.88,5.53-5.88,9.62-8.99,12.26-3.89,3.35-8.41,5.02-13.55,5.02-5.68,0-10.67-1.98-14.95-5.95-3.27-3.04-6.58-7.82-9.93-14.36l-34.8-67.03h25.11l34.21,64.81,34.92-65.16Z"/>
  </g>
  <g>
    <path class="cls-1" d="m25.97,273.41c0,2.87-1.28,5.18-3.85,6.93-2.57,1.75-6.09,2.63-10.55,2.63-2.47,0-4.71-.23-6.72-.69s-3.62-.97-4.84-1.53v-7.31h.82c.44.31.96.66,1.54,1.03.58.37,1.41.77,2.48,1.2.92.38,1.97.7,3.14.98,1.17.27,2.42.41,3.76.41,1.75,0,3.04-.19,3.88-.58.84-.39,1.26-.96,1.26-1.72,0-.67-.25-1.17-.74-1.47-.49-.3-1.43-.6-2.82-.88-.66-.15-1.55-.31-2.68-.48-1.13-.17-2.15-.38-3.08-.63-2.52-.66-4.39-1.68-5.61-3.08-1.22-1.39-1.83-3.13-1.83-5.2,0-2.67,1.26-4.89,3.79-6.66,2.53-1.77,5.98-2.66,10.36-2.66,2.08,0,4.06.21,5.97.63,1.9.42,3.39.87,4.46,1.35v7.02h-.77c-1.32-.91-2.82-1.64-4.51-2.21-1.69-.57-3.4-.85-5.13-.85-1.43,0-2.64.2-3.62.59-.98.4-1.47.96-1.47,1.68,0,.66.22,1.16.67,1.51.44.35,1.49.69,3.14,1.04.91.18,1.88.36,2.93.53,1.05.17,2.1.39,3.15.66,2.34.61,4.07,1.57,5.19,2.88,1.12,1.31,1.68,2.94,1.68,4.9Z"/>
    <path class="cls-1" d="m62.77,268.34c0,4.56-1.33,8.16-3.99,10.79-2.66,2.63-6.4,3.94-11.2,3.94s-8.55-1.31-11.21-3.94c-2.66-2.63-3.99-6.22-3.99-10.79s1.34-8.2,4.02-10.82c2.68-2.62,6.4-3.93,11.18-3.93s8.59,1.32,11.23,3.95c2.64,2.64,3.96,6.24,3.96,10.8Zm-10.95,6.75c.58-.71,1.01-1.56,1.3-2.56.29-1,.43-2.38.43-4.14,0-1.63-.15-3-.44-4.1-.3-1.1-.71-1.99-1.24-2.64-.53-.67-1.16-1.15-1.9-1.43-.74-.28-1.54-.42-2.4-.42s-1.62.12-2.29.35c-.67.23-1.31.69-1.91,1.38-.54.64-.98,1.52-1.3,2.64-.32,1.12-.48,2.53-.48,4.23,0,1.52.14,2.83.42,3.94.28,1.11.69,2.01,1.23,2.68.53.64,1.16,1.11,1.89,1.41.73.3,1.57.44,2.51.44.81,0,1.58-.14,2.31-.41.73-.27,1.35-.73,1.87-1.37Z"/>
    <path class="cls-1" d="m80.59,282.21h-8.92v-38.45h8.92v38.45Z"/>
    <path class="cls-1" d="m119.15,282.21h-8.92v-3.06c-1.64,1.25-3.15,2.2-4.52,2.85-1.37.65-2.99.98-4.89.98-3.06,0-5.42-.88-7.07-2.64-1.65-1.76-2.48-4.36-2.48-7.81v-18.06h8.92v13.76c0,1.4.04,2.57.14,3.5.09.93.3,1.7.63,2.31.31.61.79,1.05,1.42,1.33.63.28,1.52.42,2.66.42.76,0,1.6-.14,2.52-.42.92-.28,1.81-.69,2.67-1.24v-19.67h8.92v27.75Z"/>
    <path class="cls-1" d="m144.53,282.95c-2.42,0-4.63-.29-6.63-.87-2-.58-3.74-1.47-5.23-2.67-1.47-1.2-2.6-2.72-3.41-4.55-.81-1.83-1.21-3.97-1.21-6.42,0-2.59.43-4.82,1.3-6.7.86-1.88,2.07-3.43,3.62-4.67,1.5-1.17,3.23-2.03,5.19-2.57,1.96-.54,3.99-.82,6.1-.82,1.89,0,3.64.21,5.24.62,1.6.41,3.09.95,4.47,1.61v7.59h-1.26c-.35-.3-.76-.64-1.25-1.04-.49-.39-1.08-.78-1.79-1.16-.67-.36-1.41-.66-2.22-.9-.81-.24-1.74-.36-2.81-.36-2.37,0-4.19.75-5.47,2.26-1.27,1.51-1.91,3.55-1.91,6.14s.65,4.69,1.96,6.08,3.16,2.08,5.56,2.08c1.12,0,2.13-.13,3.02-.38.9-.25,1.64-.56,2.23-.9.56-.33,1.05-.67,1.48-1.04.43-.36.82-.72,1.18-1.06h1.26v7.59c-1.4.66-2.86,1.18-4.39,1.57-1.52.39-3.21.58-5.05.58Z"/>
    <path class="cls-1" d="m171.55,250.5h-9.41v-6.75h9.41v6.75Zm-.25,31.7h-8.92v-27.75h8.92v27.75Z"/>
    <path class="cls-1" d="m210.57,268.34c0,4.56-1.33,8.16-3.99,10.79-2.66,2.63-6.4,3.94-11.21,3.94s-8.55-1.31-11.2-3.94c-2.66-2.63-3.99-6.22-3.99-10.79s1.34-8.2,4.02-10.82c2.68-2.62,6.4-3.93,11.18-3.93s8.59,1.32,11.23,3.95c2.64,2.64,3.97,6.24,3.97,10.8Zm-10.95,6.75c.58-.71,1.01-1.56,1.3-2.56.29-1,.43-2.38.43-4.14,0-1.63-.15-3-.45-4.1-.3-1.1-.71-1.99-1.24-2.64-.53-.67-1.16-1.15-1.9-1.43-.74-.28-1.54-.42-2.4-.42s-1.62.12-2.29.35c-.67.23-1.31.69-1.91,1.38-.54.64-.98,1.52-1.3,2.64s-.48,2.53-.48,4.23c0,1.52.14,2.83.42,3.94.28,1.11.69,2.01,1.24,2.68.53.64,1.16,1.11,1.89,1.41.73.3,1.57.44,2.51.44.81,0,1.58-.14,2.31-.41.73-.27,1.35-.73,1.87-1.37Z"/>
    <path class="cls-1" d="m247.35,282.21h-8.92v-13.76c0-1.12-.06-2.24-.17-3.35-.12-1.11-.31-1.93-.59-2.46-.33-.61-.81-1.05-1.45-1.33-.63-.28-1.52-.42-2.66-.42-.81,0-1.63.13-2.46.4-.83.26-1.73.68-2.71,1.26v19.67h-8.92v-27.75h8.92v3.06c1.58-1.24,3.1-2.18,4.55-2.84,1.46-.66,3.07-.99,4.85-.99,2.99,0,5.33.87,7.02,2.62,1.69,1.75,2.53,4.36,2.53,7.83v18.06Z"/>
    <path class="cls-1" d="m285.38,269.97h-20.36c.13,2.17.96,3.84,2.48,4.99,1.52,1.15,3.77,1.73,6.73,1.73,1.88,0,3.7-.34,5.46-1.01,1.76-.68,3.15-1.4,4.18-2.17h.99v7.14c-2.01.81-3.9,1.39-5.68,1.75-1.78.36-3.75.54-5.91.54-5.57,0-9.83-1.25-12.8-3.76-2.96-2.5-4.45-6.07-4.45-10.7s1.4-8.21,4.21-10.88,6.66-4.02,11.55-4.02c4.51,0,7.91,1.14,10.18,3.42,2.27,2.28,3.41,5.56,3.41,9.85v3.11Zm-8.85-5.21c-.05-1.86-.51-3.26-1.38-4.2-.87-.94-2.23-1.41-4.08-1.41-1.71,0-3.12.44-4.23,1.33-1.1.89-1.72,2.31-1.85,4.27h11.54Z"/>
    <path class="cls-1" d="m318.3,273.41c0,2.87-1.29,5.18-3.85,6.93-2.57,1.75-6.09,2.63-10.55,2.63-2.47,0-4.71-.23-6.72-.69-2.01-.46-3.62-.97-4.84-1.53v-7.31h.82c.44.31.96.66,1.54,1.03.58.37,1.41.77,2.48,1.2.92.38,1.97.7,3.14.98,1.17.27,2.42.41,3.76.41,1.75,0,3.04-.19,3.88-.58.84-.39,1.26-.96,1.26-1.72,0-.67-.25-1.17-.74-1.47-.49-.3-1.43-.6-2.82-.88-.66-.15-1.55-.31-2.68-.48-1.13-.17-2.15-.38-3.08-.63-2.52-.66-4.39-1.68-5.61-3.08-1.22-1.39-1.83-3.13-1.83-5.2,0-2.67,1.26-4.89,3.79-6.66,2.53-1.77,5.98-2.66,10.37-2.66,2.08,0,4.06.21,5.97.63,1.9.42,3.39.87,4.46,1.35v7.02h-.77c-1.32-.91-2.82-1.64-4.51-2.21-1.69-.57-3.4-.85-5.13-.85-1.43,0-2.64.2-3.62.59-.98.4-1.47.96-1.47,1.68,0,.66.22,1.16.67,1.51.44.35,1.49.69,3.14,1.04.91.18,1.88.36,2.93.53,1.05.17,2.1.39,3.15.66,2.34.61,4.07,1.57,5.19,2.88,1.12,1.31,1.68,2.94,1.68,4.9Z"/>
    <path class="cls-1" d="m375.52,267.95c0,2.29-.35,4.37-1.05,6.25-.7,1.88-1.62,3.43-2.75,4.65-1.18,1.29-2.52,2.26-4.02,2.92-1.5.66-3.1.99-4.81.99-1.58,0-2.92-.17-4.02-.51-1.1-.34-2.23-.81-3.38-1.42v11.56h-8.92v-37.93h8.92v2.89c1.37-1.09,2.76-1.97,4.18-2.64,1.42-.68,3.06-1.01,4.92-1.01,3.45,0,6.14,1.27,8.06,3.81,1.92,2.54,2.87,6.02,2.87,10.45Zm-9.17.19c0-2.7-.46-4.65-1.38-5.87-.92-1.22-2.37-1.83-4.36-1.83-.84,0-1.7.13-2.59.38-.89.25-1.73.62-2.54,1.1v13.94c.59.23,1.22.38,1.9.44.67.07,1.34.1,2,.1,2.35,0,4.1-.69,5.25-2.06,1.15-1.37,1.73-3.44,1.73-6.21Z"/>
    <path class="cls-1" d="m401.28,279.26c-.48.36-1.07.8-1.78,1.31-.71.51-1.37.91-2,1.21-.87.4-1.78.69-2.72.88-.94.19-1.97.28-3.09.28-2.64,0-4.84-.82-6.62-2.45-1.78-1.63-2.67-3.71-2.67-6.25,0-2.03.45-3.68,1.36-4.97.91-1.29,2.19-2.3,3.85-3.04,1.65-.74,3.69-1.27,6.13-1.58,2.44-.31,4.97-.54,7.59-.69v-.15c0-1.53-.63-2.59-1.88-3.17-1.25-.58-3.1-.88-5.54-.88-1.47,0-3.03.26-4.69.78-1.66.52-2.86.92-3.58,1.2h-.82v-6.7c.94-.25,2.47-.54,4.58-.88,2.12-.34,4.24-.51,6.36-.51,5.06,0,8.71.78,10.96,2.34,2.25,1.56,3.37,4,3.37,7.33v18.88h-8.82v-2.94Zm0-4.32v-5.76c-1.2.1-2.5.23-3.9.41-1.4.17-2.46.37-3.19.6-.89.28-1.57.69-2.04,1.22s-.7,1.24-.7,2.11c0,.58.05,1.04.15,1.4.1.36.35.71.74,1.03.38.33.83.57,1.36.73.53.16,1.35.23,2.47.23.89,0,1.79-.18,2.71-.54.91-.36,1.72-.84,2.41-1.43Z"/>
    <path class="cls-1" d="m440.92,262.93h-.79c-.38-.13-.99-.23-1.83-.3-.84-.07-1.54-.1-2.1-.1-1.26,0-2.38.08-3.35.25-.97.16-2.01.45-3.13.84v18.58h-8.92v-27.75h8.92v4.08c1.96-1.68,3.66-2.8,5.1-3.35,1.45-.55,2.78-.83,3.99-.83.31,0,.67,0,1.06.02.39.02.74.04,1.04.07v8.47Z"/>
    <path class="cls-1" d="m465.29,279.26c-.48.36-1.07.8-1.78,1.31-.71.51-1.37.91-2,1.21-.87.4-1.78.69-2.72.88-.94.19-1.97.28-3.09.28-2.64,0-4.84-.82-6.62-2.45-1.78-1.63-2.67-3.71-2.67-6.25,0-2.03.45-3.68,1.36-4.97.91-1.29,2.19-2.3,3.85-3.04,1.65-.74,3.69-1.27,6.13-1.58,2.44-.31,4.97-.54,7.59-.69v-.15c0-1.53-.63-2.59-1.88-3.17-1.25-.58-3.1-.88-5.54-.88-1.47,0-3.03.26-4.69.78-1.66.52-2.86.92-3.58,1.2h-.82v-6.7c.94-.25,2.47-.54,4.58-.88,2.12-.34,4.24-.51,6.36-.51,5.06,0,8.71.78,10.96,2.34,2.25,1.56,3.37,4,3.37,7.33v18.88h-8.82v-2.94Zm0-4.32v-5.76c-1.2.1-2.5.23-3.9.41-1.4.17-2.46.37-3.19.6-.89.28-1.57.69-2.04,1.22-.47.53-.7,1.24-.7,2.11,0,.58.05,1.04.15,1.4.1.36.35.71.74,1.03.38.33.83.57,1.36.73.53.16,1.35.23,2.47.23.89,0,1.79-.18,2.71-.54.91-.36,1.72-.84,2.41-1.43Z"/>
    <path class="cls-1" d="m519.1,282.95c-2.42,0-4.63-.29-6.63-.87-2-.58-3.74-1.47-5.23-2.67-1.47-1.2-2.6-2.72-3.41-4.55-.81-1.83-1.21-3.97-1.21-6.42,0-2.59.43-4.82,1.3-6.7.86-1.88,2.07-3.43,3.62-4.67,1.5-1.17,3.23-2.03,5.19-2.57,1.96-.54,3.99-.82,6.1-.82,1.89,0,3.64.21,5.24.62,1.6.41,3.09.95,4.47,1.61v7.59h-1.26c-.35-.3-.76-.64-1.25-1.04-.49-.39-1.08-.78-1.79-1.16-.67-.36-1.41-.66-2.22-.9-.81-.24-1.74-.36-2.81-.36-2.37,0-4.19.75-5.47,2.26-1.27,1.51-1.91,3.55-1.91,6.14s.65,4.69,1.96,6.08,3.16,2.08,5.56,2.08c1.12,0,2.13-.13,3.02-.38.9-.25,1.64-.56,2.23-.9.56-.33,1.05-.67,1.48-1.04.43-.36.82-.72,1.18-1.06h1.26v7.59c-1.4.66-2.86,1.18-4.39,1.57-1.52.39-3.21.58-5.05.58Z"/>
    <path class="cls-1" d="m557.07,262.93h-.79c-.38-.13-.99-.23-1.83-.3-.84-.07-1.54-.1-2.1-.1-1.26,0-2.38.08-3.35.25-.97.16-2.01.45-3.13.84v18.58h-8.92v-27.75h8.92v4.08c1.96-1.68,3.66-2.8,5.1-3.35,1.45-.55,2.78-.83,3.99-.83.31,0,.67,0,1.06.02.39.02.74.04,1.04.07v8.47Z"/>
    <path class="cls-1" d="m591.96,269.97h-20.36c.13,2.17.96,3.84,2.48,4.99,1.52,1.15,3.77,1.73,6.73,1.73,1.88,0,3.7-.34,5.46-1.01,1.76-.68,3.15-1.4,4.18-2.17h.99v7.14c-2.01.81-3.9,1.39-5.68,1.75-1.78.36-3.75.54-5.91.54-5.57,0-9.83-1.25-12.8-3.76-2.96-2.5-4.45-6.07-4.45-10.7s1.4-8.21,4.21-10.88c2.81-2.68,6.66-4.02,11.55-4.02,4.51,0,7.91,1.14,10.18,3.42,2.27,2.28,3.41,5.56,3.41,9.85v3.11Zm-8.85-5.21c-.05-1.86-.51-3.26-1.38-4.2-.87-.94-2.23-1.41-4.08-1.41-1.71,0-3.12.44-4.23,1.33-1.1.89-1.72,2.31-1.85,4.27h11.54Z"/>
    <path class="cls-1" d="m615.22,282.95c-2.42,0-4.63-.29-6.63-.87-2-.58-3.74-1.47-5.23-2.67-1.47-1.2-2.6-2.72-3.41-4.55-.81-1.83-1.21-3.97-1.21-6.42,0-2.59.43-4.82,1.3-6.7.86-1.88,2.07-3.43,3.62-4.67,1.5-1.17,3.23-2.03,5.19-2.57,1.96-.54,3.99-.82,6.1-.82,1.89,0,3.64.21,5.24.62,1.6.41,3.09.95,4.47,1.61v7.59h-1.26c-.35-.3-.76-.64-1.25-1.04-.49-.39-1.08-.78-1.79-1.16-.67-.36-1.41-.66-2.22-.9-.81-.24-1.74-.36-2.81-.36-2.37,0-4.19.75-5.47,2.26-1.27,1.51-1.91,3.55-1.91,6.14s.65,4.69,1.96,6.08c1.31,1.38,3.16,2.08,5.56,2.08,1.12,0,2.13-.13,3.02-.38.9-.25,1.64-.56,2.23-.9.56-.33,1.05-.67,1.48-1.04.43-.36.82-.72,1.18-1.06h1.26v7.59c-1.4.66-2.86,1.18-4.39,1.57-1.52.39-3.21.58-5.05.58Z"/>
    <path class="cls-1" d="m660.4,269.97h-20.36c.13,2.17.96,3.84,2.48,4.99s3.77,1.73,6.73,1.73c1.88,0,3.7-.34,5.46-1.01,1.76-.68,3.15-1.4,4.18-2.17h.99v7.14c-2.01.81-3.9,1.39-5.68,1.75-1.78.36-3.75.54-5.91.54-5.57,0-9.83-1.25-12.8-3.76-2.96-2.5-4.45-6.07-4.45-10.7s1.4-8.21,4.21-10.88c2.81-2.68,6.66-4.02,11.55-4.02,4.51,0,7.91,1.14,10.18,3.42,2.27,2.28,3.41,5.56,3.41,9.85v3.11Zm-8.85-5.21c-.05-1.86-.51-3.26-1.38-4.2-.87-.94-2.23-1.41-4.08-1.41-1.71,0-3.12.44-4.23,1.33-1.1.89-1.72,2.31-1.85,4.27h11.54Z"/>
    <path class="cls-1" d="m689.32,262.93h-.79c-.38-.13-.99-.23-1.83-.3-.84-.07-1.54-.1-2.1-.1-1.26,0-2.38.08-3.35.25-.97.16-2.01.45-3.13.84v18.58h-8.92v-27.75h8.92v4.08c1.96-1.68,3.66-2.8,5.1-3.35,1.45-.55,2.78-.83,3.99-.83.31,0,.67,0,1.06.02s.74.04,1.04.07v8.47Z"/>
  </g>
  <g>
    <g>
      <rect class="cls-1" x="531.66" y="45.76" width="20.64" height="20.64"/>
      <rect class="cls-1" x="552.38" y="25.12" width="20.64" height="20.64"/>
      <rect class="cls-1" x="552.38" y="45.76" width="20.64" height="20.64"/>
    </g>
    <path class="cls-2" d="m529.52.05c-44.86,1.14-91.86,22.29-137.43,64.36,37.93,44.78,86.64,69.71,137.43,69.64,46.07-.07,93.86-20.64,137-65.5C626.52,21.98,579.3-1.24,529.52.05Zm0,21.86c22.14,0,40.29,16.5,40.29,36.71s-18.14,36.71-40.29,36.71-40.21-16.5-40.21-36.71,18.14-36.71,40.21-36.71Zm0,96.93c-41.43.14-81.14-19.14-112.07-53.93,23.14-20.36,46.71-34.36,70.07-42.21-9.71,9.36-15.64,22.07-15.64,35.93,0,29,25.93,52.64,57.64,52.64s57.71-23.64,57.71-52.64c0-15.07-7-28.64-18.14-38.28,25.78,7.71,50.07,23.71,71.78,47.78-35.07,34.71-73.93,50.64-111.36,50.71Z"/>
  </g>
</svg>