<?xml version="1.0" encoding="UTF-8"?>
<svg id="Marco" xmlns="http://www.w3.org/2000/svg" viewBox="0 0 751.12 171.75">
  <defs>
    <style>
      .cls-1 {
        fill: #fff;
        stroke-width: 0px;
      }
    </style>
  </defs>
  <g>
    <g>
      <path class="cls-1" d="m566.33,30.45h65.51v20.56h-41.26v25.32h38.54v20.39h-38.54v44.59h-24.25V30.45Z"/>
      <path class="cls-1" d="m665.43,51.49h-29v-21.04h82.66v21.04h-29.41v89.82h-24.25V51.49Z"/>
    </g>
    <g>
      <path class="cls-1" d="m61.03,51.49h-29v-21.04h82.66v21.04h-29.41v89.82h-24.25V51.49Z"/>
      <path class="cls-1" d="m146.54,30.45v110.86h-24.25V30.45h24.25Z"/>
      <path class="cls-1" d="m251.61,98.93c-.62-13.72-.93-28.95-.93-45.68h-.31c-3.73,14.95-7.78,29.29-12.14,43l-13.07,43.25h-18.9l-11.51-42.76c-3.58-13.72-6.82-28.21-9.72-43.49h-.31c-.52,15.91-1.09,31.23-1.71,45.95l-2.1,42.1h-22.48l6.85-110.86h32.36l10.5,37.22c3.63,12.92,6.66,26.07,9.1,39.47h.62c3.01-13.5,6.41-26.8,10.19-39.87l11.36-36.82h31.82l5.76,110.86h-23.57l-1.79-42.37Z"/>
      <path class="cls-1" d="m355.61,94.38h-39.47v26.36h44.14v20.56h-68.39V30.45h66.13v20.56h-41.89v22.99h39.47v20.39Z"/>
      <path class="cls-1" d="m372.15,115.69c7.3,4.34,16.59,6.64,27.87,6.91,11.71-.16,17.61-4.23,17.72-12.21,0-3.37-1.45-6.29-4.34-8.76-2.84-2.3-7.6-4.53-14.3-6.67-9.32-3.32-16.66-7.66-22.01-13.02-5.73-5.41-8.6-12.1-8.6-20.08.11-9.75,3.88-17.7,11.31-23.86,7.27-6.16,17.36-9.29,30.27-9.4,12.43.21,21.8,2.09,28.12,5.62l-5.65,20.08c-2.1-1.23-5.06-2.44-8.88-3.62-1.99-.59-4.14-1.04-6.46-1.37-2.31-.21-4.93-.32-7.83-.32-5.38,0-9.39,1.04-12.03,3.13-2.75,2.09-4.12,4.61-4.12,7.55,0,3.32,1.64,6.08,4.91,8.27,3.33,2.3,8.56,4.82,15.69,7.55,19.21,6.8,28.76,17.89,28.65,33.26,0,9.43-3.53,17.43-10.58,24.02-7.26,6.75-18.45,10.2-33.56,10.36-13.57-.38-23.94-2.68-31.1-6.91l4.9-20.56Z"/>
    </g>
  </g>
  <g>
    <g>
      <polygon class="cls-1" points="463.21 88.22 468.88 88.22 468.88 86.14 463.16 86.14 462.22 87.18 463.21 88.22"/>
      <polygon class="cls-1" points="548.71 86.14 543.04 86.14 543.04 88.22 548.75 88.22 549.7 87.18 548.71 86.14"/>
      <polygon class="cls-1" points="506.15 131.33 506.15 125.66 504.07 125.66 504.07 131.38 505.11 132.32 506.15 131.33"/>
      <polygon class="cls-1" points="504.07 45.31 504.07 50.98 506.15 50.98 506.15 45.27 505.11 44.32 504.07 45.31"/>
      <polygon class="cls-1" points="468.61 67.51 473.54 70.3 474.56 68.5 469.6 65.68 468.26 66.11 468.61 67.51"/>
      <polygon class="cls-1" points="484.53 125.29 487.24 120.31 485.41 119.32 482.69 124.33 483.15 125.66 484.53 125.29"/>
      <polygon class="cls-1" points="544.12 107.69 539.1 105.06 538.14 106.9 543.2 109.55 544.52 109.07 544.12 107.69"/>
      <polygon class="cls-1" points="528.91 124.27 525.88 119.48 524.12 120.59 527.17 125.42 528.56 125.66 528.91 124.27"/>
      <polygon class="cls-1" points="469.01 109.69 473.81 106.69 472.71 104.92 467.87 107.95 467.61 109.33 469.01 109.69"/>
      <polygon class="cls-1" points="524.99 49.67 522.22 54.62 524.04 55.63 526.83 50.65 526.38 49.31 524.99 49.67"/>
      <polygon class="cls-1" points="482.61 52.37 485.64 57.16 487.4 56.05 484.35 51.22 482.96 50.98 482.61 52.37"/>
    </g>
    <polygon class="cls-1" points="478.34 74.35 502.89 85.58 557.47 38.57 504.98 104.38 478.34 74.35"/>
    <path class="cls-1" d="m550.63,55.86l-9.26,8.12c4.7,6.88,7.45,15.2,7.45,24.16,0,23.68-19.2,42.88-42.88,42.88s-42.88-19.2-42.88-42.88,19.2-42.88,42.88-42.88c9.75,0,18.74,3.26,25.95,8.75l9.33-8.66c-9.71-8.42-22.38-13.54-36.25-13.54-30.58,0-55.36,24.79-55.36,55.36s24.79,55.36,55.36,55.36,55.36-24.79,55.36-55.36c0-11.63-3.59-22.41-9.71-31.32Z"/>
  </g>
</svg>